<svg fill-rule="evenodd" stroke-linejoin="round" stroke-miterlimit="2" clip-rule="evenodd"
    viewBox="0 0 93 57" height="25px" width="40px" class="inline-block m-[2px]"
    astro-icon="logo-timone">
    <g fill-rule="nonzero" stroke="#000" stroke-width=".25">
        <path fill="#00a453"
            d="M36.2 26.1C25.7 30.5 18.4 40.9 18.4 53h-6.7c0-14.7 8.9-27.4 21.6-32.9"></path>
        <path fill="#eb212e" d="M61.5 19.9c12.9 5.5 22 18.2 22 33.1h-6.7c0-12.1-7.3-22.4-17.8-26.9"></path>
        <g fill="#fff">
            <path d="M58.9 26.1c-7-3.1-15.3-3.3-22.9-.1l-2.6-6.2c9.4-4 19.5-3.6 28.1.1z"></path>
            <path
                d="M76.8 53.5V53h.6-.6v.5h-.6V53c0-7.9-3.2-15-8.4-20.2s-12.3-8.4-20.2-8.4-15.1 3.2-20.2 8.4C22.2 37.9 19 45 19 53v.6h-7.8V53c0-20.1 16.3-36.4 36.5-36.4 20.1 0 36.5 16.3 36.5 36.4v.6h-7.4zm6.1-1.1c-.2-9.5-4.1-18.1-10.3-24.4-6.4-6.4-15.2-10.3-25-10.3-8.462 0-16.178 2.907-22.247 7.821A35.316 35.316 0 0 0 22.6 28c-6.3 6.3-10.2 14.9-10.3 24.4h5.6c.171-9.207 4.508-17.381 11.195-22.722A29.553 29.553 0 0 1 47.6 23.2c16.2 0 29.4 13 29.7 29.2z"></path>
            <path stroke-linejoin="miter" stroke-miterlimit="10"
                d="M87.3 35.6c-.3-.7-1.1-1-1.8-.7L52.9 48.6c-.3-.4-.7-.8-1.2-1.1l13.7-32.7c.3-.7 0-1.5-.7-1.8s-1.5 0-1.7.7L48.4 46.3h-.7c-.4 0-.7 0-1.1.1L32.1 13.8c-.3-.7-1.1-1-1.7-.7-.7.3-1 1.1-.7 1.8l13.8 32.9c-.4.3-.7.6-1 1l-33-13.9c-.7-.3-1.5 0-1.8.7s0 1.4.7 1.7L41.1 52c0 .3-.1.6-.1 1h13.4c0-.4 0-.8-.1-1.1l32.3-14.5c.7-.4 1-1.1.7-1.8"></path>
            <path
                d="M51.1 11.7h2.3l.3-4.2c.1-.7 0-1.6 0-1.6s.3 1 .5 1.6l1 2.7h2l1-2.7c.2-.6.5-1.6.5-1.6s-.1.9 0 1.6l.3 4.2h2.3l-.8-9.4H58l-1.4 4c-.2.6-.5 1.6-.5 1.6s-.3-.9-.5-1.6l-1.4-4h-2.5zM39.8 11.7h2.4L39 2.3h-2.4l-3.2 9.4h2.4l.6-2h2.9zm-2-7.2s.2 1 .4 1.6l.5 1.8h-1.9l.5-1.8c.2-.6.4-1.6.5-1.6zm4.8 7.2h3.3c3 0 4.8-1.8 4.8-4.7 0-3-1.9-4.7-4.8-4.7h-3.3zm2.3-2V4.3h.9c1.6 0 2.6.9 2.6 2.7s-1 2.7-2.6 2.7z"></path>
        </g>
    </g>
</svg>