<svg fill-rule="evenodd" stroke-linejoin="round" stroke-miterlimit="2" clip-rule="evenodd"
    viewBox="0 0 20 20" height="25px" width="40px" class="inline-block m-[2px]" astro-icon="plus-18">
    <g fill="#fff" fill-rule="nonzero" stroke="#000">
        <path stroke-width=".3" d="M6.327 13.406v-5.43H5.072V6.585h2.987v6.821z"></path>
        <path stroke-width=".35"
            d="M14.568 8.346c0 .593-.321 1.119-.856 1.411.749.311 1.217.963 1.217 1.722 0 1.226-1.09 2.005-2.793 2.005s-2.793-.769-2.793-1.976c0-.778.506-1.44 1.294-1.751-.574-.321-.944-.866-.944-1.46 0-1.09.954-1.781 2.433-1.781 1.499 0 2.442.711 2.442 1.83zm-3.59 2.987c0 .574.409.895 1.158.895s1.167-.311 1.167-.895c0-.564-.418-.885-1.167-.885s-1.158.321-1.158.885zm.175-2.89c0 .487.35.759.983.759.632 0 .983-.272.983-.759 0-.506-.351-.788-.983-.788-.633 0-.983.282-.983.788z"></path>
        <path stroke-width=".3"
            d="M17.811 7.355c.288.849.434 1.738.434 2.645 0 4.546-3.699 8.245-8.245 8.245S1.755 14.546 1.755 10 5.454 1.755 10 1.755c.907 0 1.796.146 2.645.434V.355A9.952 9.952 0 0 0 10 0C4.486 0 0 4.486 0 10s4.486 10 10 10 10-4.486 10-10c0-.9-.119-1.787-.355-2.645z"></path>
        <path stroke-width=".25"
            d="M17.312 2.683V.765h-1.379v1.918h-1.906v1.378h1.906v1.918h1.379V4.061h1.917V2.683z"></path>
    </g>
</svg>